<svg width="256" height="71" viewBox="0 0 256 71" fill="none" xmlns="http://www.w3.org/2000/svg">
<path d="M82.2517 47.938L83.9061 43.768C84.7522 44.3875 85.8023 44.9087 87.0563 45.3318C88.3254 45.7397 89.4586 45.9437 90.4557 45.9437C92.2234 45.9437 93.6437 45.4602 94.7164 44.4932C95.7891 43.5263 96.3254 42.2949 96.3254 40.7991C96.3254 39.6811 96.0233 38.6462 95.4189 37.6943C94.8297 36.7274 93.3339 35.6773 90.9317 34.5442L88.2574 33.2977C85.9911 32.2401 84.4047 30.9861 83.4982 29.5356C82.6068 28.0852 82.1611 26.3401 82.1611 24.3005C82.1611 21.8227 83.0374 19.7679 84.79 18.1361C86.5426 16.5044 88.7938 15.6885 91.5436 15.6885C95.215 15.6885 97.7683 16.2853 99.2037 17.4789L97.8665 21.4223C97.2622 20.9841 96.3406 20.5611 95.1016 20.1531C93.8627 19.7452 92.7145 19.5412 91.6569 19.5412C90.1158 19.5412 88.8995 19.9794 88.0081 20.8557C87.1318 21.732 86.6937 22.8576 86.6937 24.2325C86.6937 25.0786 86.8523 25.8491 87.1696 26.5441C87.4869 27.2391 87.925 27.8208 88.484 28.2892C89.0582 28.7575 90.2215 29.4148 91.9741 30.2608L94.6937 31.5526C96.96 32.6254 98.5464 33.9096 99.4529 35.4054C100.375 36.886 100.835 38.7746 100.835 41.0711C100.835 43.564 99.8307 45.6793 97.8212 47.4167C95.8269 49.1542 93.1526 50.023 89.7985 50.023C86.8523 50.023 84.3367 49.328 82.2517 47.938Z" fill="#012640"/>
<path d="M108.311 20.3344V29.5583H119.28V33.411H108.311V45.3771H123.359V49.4564H103.779V16.2551H123.609V20.3344H108.311Z" fill="#012640"/>
<path d="M154.903 49.9097H153.475L145.565 27.02L138.177 49.9097H136.749L126.279 16.2551H130.993L137.656 39.4394L144.953 16.2551H146.54L153.747 39.394L160.523 16.2551H165.237L154.903 49.9097Z" fill="#012640"/>
<path d="M172.748 36.6462V49.4281H168.215V16.2268C171.645 16.0757 173.715 16.0002 174.425 16.0002C184.064 16.0002 188.884 19.2259 188.884 25.6773C188.884 33.1409 184.623 36.8728 176.102 36.8728C175.588 36.8728 174.47 36.7972 172.748 36.6462ZM172.748 20.3061V32.5668C174.667 32.7179 175.679 32.7934 175.785 32.7934C181.405 32.7934 184.215 30.58 184.215 26.1532C184.215 22.1041 181.216 20.0795 175.218 20.0795C174.614 20.0795 173.79 20.155 172.748 20.3061Z" fill="#012640"/>
<path d="M210.054 49.4929L201.193 35.2379C200.18 35.2379 198.579 35.1623 196.388 35.0113V49.4929H191.855V16.2916C192.022 16.2916 193.193 16.2387 195.368 16.133C197.559 16.0121 199.153 15.9517 200.15 15.9517C208.127 15.9517 212.116 19.1245 212.116 25.4701C212.116 27.5551 211.474 29.4362 210.19 31.1132C208.906 32.7752 207.38 33.8101 205.612 34.218L215.244 49.4929H210.054ZM196.388 20.3709V31.1585C197.476 31.3096 198.533 31.3852 199.561 31.3852C202.28 31.3852 204.26 30.947 205.499 30.0707C206.737 29.1944 207.357 27.6307 207.357 25.3795C207.357 23.5211 206.692 22.184 205.363 21.3681C204.033 20.5522 201.933 20.1443 199.062 20.1443C198.609 20.1443 197.718 20.2199 196.388 20.3709Z" fill="#012640"/>
<path d="M218.264 32.5279C218.264 27.7234 219.466 23.7045 221.868 20.4712C224.285 17.2379 227.541 15.6213 231.636 15.6213C236.244 15.6213 239.772 17.1095 242.219 20.0859C244.682 23.0623 245.913 27.2097 245.913 32.5279C245.913 37.9822 244.682 42.2579 242.219 45.3552C239.757 48.4374 236.229 49.9784 231.636 49.9784C227.451 49.9784 224.172 48.3467 221.8 45.0832C219.443 41.8198 218.264 37.6347 218.264 32.5279ZM223.024 32.5279C223.024 36.3353 223.772 39.5157 225.267 42.069C226.778 44.6224 228.901 45.8991 231.636 45.8991C234.733 45.8991 237.09 44.7282 238.706 42.3863C240.338 40.0445 241.154 36.7583 241.154 32.5279C241.154 23.9764 237.981 19.7007 231.636 19.7007C228.825 19.7007 226.688 20.8489 225.222 23.1454C223.756 25.4419 223.024 28.5694 223.024 32.5279Z" fill="#012640"/>
<path d="M245.953 10.5673V16.623H244.677V10.5673H242.39V9.43373H248.342V10.5673H245.953ZM255.885 16.628H254.648L253.902 12.7511L252.455 16.7212H251.998L250.551 12.7511L249.775 16.628H248.544L249.991 9.43373H250.669L252.224 14.2773L253.745 9.43373H254.418L255.885 16.628Z" fill="#71AA37"/>
<path fill-rule="evenodd" clip-rule="evenodd" d="M35.1084 0C54.4957 0 70.2169 15.7172 70.2169 35.1084C70.2169 54.4957 54.4997 70.2169 35.1084 70.2169C15.7212 70.2169 0 54.4997 0 35.1084C0 15.7212 15.7172 0 35.1084 0ZM35.793 31.961C30.8227 31.961 26.7111 35.6188 26.0022 40.3907H29.2307C29.9112 37.4053 32.5929 35.1773 35.793 35.1773C39.5117 35.1773 42.5255 38.179 42.5255 41.8814C42.5255 45.5839 39.5117 48.5855 35.793 48.5855C33.5732 48.5855 31.6045 47.5161 30.3771 45.8634L27.2823 46.9085C27.2863 46.9125 27.2863 46.9166 27.2904 46.9206H27.2863L35.789 61.7547L39.6818 54.9615L35.9915 54.9493L35.789 55.3018L33.6096 51.5021C34.3104 51.6601 35.0396 51.7411 35.789 51.7411C41.2576 51.7411 45.6851 47.3136 45.6851 41.8531C45.6851 36.3885 41.2535 31.965 35.789 31.965L35.793 31.961ZM35.793 8.45811C30.3244 8.45811 25.8969 12.8857 25.8969 18.3462C25.8969 23.8067 30.3285 28.2342 35.793 28.2342V28.2383C40.4717 28.2383 44.4091 31.41 45.5879 35.7201H48.861C47.6174 29.6479 42.2419 25.0786 35.7971 25.0786C32.0784 25.0786 29.0646 22.077 29.0646 18.3745C29.0646 14.6721 32.0784 11.6704 35.7971 11.6704C39.5036 11.6704 42.5133 14.6559 42.5295 18.3462H45.6932C45.6932 12.8816 41.2616 8.45811 35.7971 8.45811H35.793ZM35.8011 38.4301C37.7091 38.4301 39.2524 39.9735 39.2524 41.8814C39.2524 43.7893 37.7091 45.3327 35.8011 45.3327C33.8972 45.3327 32.3498 43.7893 32.3498 41.8814C32.3498 39.9735 33.8932 38.4301 35.8011 38.4301ZM24.8032 26.946C26.7111 26.946 28.2545 28.4894 28.2545 30.3973C28.2545 32.3012 26.7111 33.8486 24.8032 33.8486C22.8993 33.8486 21.3519 32.3053 21.3519 30.3973C21.3519 28.4935 22.8952 26.946 24.8032 26.946ZM35.7971 14.9313C37.705 14.9313 39.2484 16.4747 39.2484 18.3826C39.2484 20.2905 37.705 21.8339 35.7971 21.8339C33.8932 21.8339 32.3458 20.2905 32.3458 18.3826C32.3458 16.4787 33.8891 14.9313 35.7971 14.9313Z" fill="#71AA37"/>
</svg>
