<svg width="71" height="71" viewBox="0 0 71 71" fill="none" xmlns="http://www.w3.org/2000/svg">
<path fill-rule="evenodd" clip-rule="evenodd" d="M35.1084 0C54.4957 0 70.2169 15.7172 70.2169 35.1084C70.2169 54.4957 54.4997 70.2169 35.1084 70.2169C15.7212 70.2169 0 54.4997 0 35.1084C0 15.7212 15.7172 0 35.1084 0ZM35.793 31.961C30.8227 31.961 26.7111 35.6188 26.0022 40.3907H29.2307C29.9112 37.4053 32.5929 35.1773 35.793 35.1773C39.5117 35.1773 42.5255 38.179 42.5255 41.8814C42.5255 45.5839 39.5117 48.5855 35.793 48.5855C33.5732 48.5855 31.6045 47.5161 30.3771 45.8634L27.2823 46.9085C27.2863 46.9125 27.2863 46.9166 27.2904 46.9206H27.2863L35.789 61.7547L39.6818 54.9615L35.9915 54.9493L35.789 55.3018L33.6096 51.5021C34.3104 51.6601 35.0396 51.7411 35.789 51.7411C41.2576 51.7411 45.6851 47.3136 45.6851 41.8531C45.6851 36.3885 41.2535 31.965 35.789 31.965L35.793 31.961ZM35.793 8.45811C30.3244 8.45811 25.8969 12.8857 25.8969 18.3462C25.8969 23.8067 30.3285 28.2342 35.793 28.2342V28.2383C40.4717 28.2383 44.4091 31.41 45.5879 35.7201H48.861C47.6174 29.6479 42.2419 25.0786 35.7971 25.0786C32.0784 25.0786 29.0646 22.077 29.0646 18.3745C29.0646 14.6721 32.0784 11.6704 35.7971 11.6704C39.5036 11.6704 42.5133 14.6559 42.5295 18.3462H45.6932C45.6932 12.8816 41.2616 8.45811 35.7971 8.45811H35.793ZM35.8011 38.4301C37.7091 38.4301 39.2524 39.9735 39.2524 41.8814C39.2524 43.7893 37.7091 45.3327 35.8011 45.3327C33.8972 45.3327 32.3498 43.7893 32.3498 41.8814C32.3498 39.9735 33.8932 38.4301 35.8011 38.4301ZM24.8032 26.946C26.7111 26.946 28.2545 28.4894 28.2545 30.3973C28.2545 32.3012 26.7111 33.8486 24.8032 33.8486C22.8993 33.8486 21.3519 32.3053 21.3519 30.3973C21.3519 28.4935 22.8952 26.946 24.8032 26.946ZM35.7971 14.9313C37.705 14.9313 39.2484 16.4747 39.2484 18.3826C39.2484 20.2905 37.705 21.8339 35.7971 21.8339C33.8932 21.8339 32.3458 20.2905 32.3458 18.3826C32.3458 16.4787 33.8891 14.9313 35.7971 14.9313Z" fill="#71AA37"/>
</svg>
